<svg width="32" height="32" viewBox="0 0 32 32" fill="none" xmlns="http://www.w3.org/2000/svg">
<path d="M23.5061 0H4.7561C3.20523 0 1.9436 1.26163 1.9436 2.8125V25.4376C1.9436 26.6582 2.72973 27.6891 3.8186 28.0774V9.21388C3.8186 7.96238 4.3066 6.785 5.19192 5.89969L7.84329 3.24831C8.7286 2.363 9.90598 1.875 11.1575 1.875H26.1459C25.7576 0.786125 24.7267 0 23.5061 0Z" fill="#43474B"/>
<path d="M27.2563 3.76245C18.9732 3.76245 21.3838 3.76245 13.1938 3.76245V10.3125C13.1938 10.8306 12.7745 11.2625 12.2563 11.2625H5.69385V29.1875C5.69385 30.7388 6.9551 32 8.50635 32H27.2563C28.807 32 30.0564 30.7388 30.0564 29.1875V6.56245C30.0564 5.01183 28.807 3.76245 27.2563 3.76245ZM25.3813 26.375H10.3813C9.86322 26.375 9.44385 25.9556 9.44385 25.4375C9.44385 24.9194 9.86322 24.5 10.3813 24.5H25.3813C25.8995 24.5 26.3188 24.9194 26.3188 25.4375C26.3188 25.9556 25.8995 26.375 25.3813 26.375ZM25.3813 22.625H10.3813C9.86322 22.625 9.44385 22.2056 9.44385 21.6875C9.44385 21.1694 9.86322 20.75 10.3813 20.75H25.3813C25.8995 20.75 26.3188 21.1694 26.3188 21.6875C26.3188 22.2056 25.8995 22.625 25.3813 22.625ZM25.3813 18.875H10.3813C9.86322 18.875 9.44385 18.4556 9.44385 17.9375C9.44385 17.4194 9.86322 17 10.3813 17H25.3813C25.8995 17 26.3188 17.4194 26.3188 17.9375C26.3188 18.4556 25.8995 18.875 25.3813 18.875ZM25.3813 15.125H10.3813C9.86322 15.125 9.44385 14.7056 9.44385 14.1875C9.44385 13.6694 9.86322 13.25 10.3813 13.25H25.3813C25.8995 13.25 26.3188 13.6694 26.3188 14.1875C26.3188 14.7056 25.8995 15.125 25.3813 15.125Z" fill="#43474B"/>
<path d="M11.1575 3.75C10.4067 3.75 9.69998 4.043 9.16898 4.574L6.5176 7.22538C5.89254 7.85038 5.6936 8.54925 5.6936 9.375H11.3186V3.75H11.1575Z" fill="#43474B"/>
</svg>
