<svg width="32" height="32" viewBox="0 0 32 32" fill="none" xmlns="http://www.w3.org/2000/svg">
<g clip-path="url(#clip0_122_373)">
<path d="M11.0874 8.63818L4.18823 21.8093L10.2522 27.8728L11.3196 27.3135C11.4021 27.407 11.4866 27.4988 11.5747 27.5869C12.7363 28.7485 14.2617 29.3293 15.7878 29.3293C17.3132 29.3291 18.8396 28.7483 20.001 27.5869C21.4951 26.0928 22.0713 23.9514 21.573 21.9429L23.4229 20.9739L11.0874 8.63818ZM18.6753 26.261C17.8792 27.0571 16.8335 27.4551 15.7878 27.4551C14.8076 27.4548 13.8271 27.1052 13.0527 26.4055L19.8391 22.8508C19.9998 24.0876 19.5864 25.3499 18.6753 26.261Z" fill="#C83E37"/>
<path d="M15.7407 4.95947C15.1843 4.40308 14.4446 4.09668 13.6577 4.09668C12.8708 4.09668 12.1311 4.40308 11.5747 4.95947C11.3076 5.22656 11.103 5.53271 10.9602 5.85938L26.2024 21.1016C26.5334 20.9563 26.8381 20.7498 27.1016 20.4863C28.2502 19.3379 28.2502 17.469 27.1016 16.3203L15.7407 4.95947Z" fill="#C83E37"/>
<path d="M0.923798 22.7109C-0.22464 23.8594 -0.22464 25.7283 0.924042 26.877L5.18454 31.1372C5.74069 31.6936 6.48044 32 7.2673 32C8.05417 32 8.79391 31.6936 9.35031 31.1372C9.6174 30.8701 9.82224 30.564 9.96506 30.2373L1.82297 22.0957C1.49191 22.241 1.18723 22.4475 0.923798 22.7109Z" fill="#C83E37"/>
<path d="M26.0836 6.91479C26.3235 6.91479 26.5635 6.82324 26.7466 6.64038L31.7864 1.60034C32.1526 1.23438 32.1526 0.640625 31.7864 0.274658C31.4205 -0.0915527 30.827 -0.0915527 30.4608 0.274658L25.4207 5.31445C25.0547 5.68042 25.0547 6.27417 25.4207 6.64038C25.6038 6.82349 25.8438 6.91479 26.0836 6.91479Z" fill="#C83E37"/>
<path d="M20.2447 4.98687C20.4029 5.09063 20.5813 5.14019 20.7574 5.14019C21.063 5.14019 21.3626 4.99077 21.5425 4.71636L23.6812 1.45147C23.9651 1.01836 23.844 0.437063 23.4109 0.153372C22.9776 -0.13032 22.3965 -0.00922614 22.1128 0.423879L19.9742 3.68877C19.6905 4.12188 19.8116 4.70293 20.2447 4.98687Z" fill="#C83E37"/>
<path d="M31.9076 8.65021C31.6239 8.21735 31.0429 8.09625 30.6097 8.37995L27.3449 10.5189C26.9117 10.8028 26.7909 11.3839 27.0746 11.817C27.2545 12.0916 27.5541 12.2408 27.8595 12.2408C28.0358 12.2408 28.214 12.1912 28.3724 12.0872L31.6371 9.94831C32.0704 9.66461 32.1915 9.08356 31.9076 8.65021Z" fill="#C83E37"/>
</g>
<defs>
<clipPath id="clip0_122_373">
<rect width="32" height="32" fill="white"/>
</clipPath>
</defs>
</svg>
