<svg width="32" height="32" viewBox="0 0 32 32" fill="none" xmlns="http://www.w3.org/2000/svg">
<path d="M2.1875 23.1251V6.13318C0.936875 6.41755 0 7.53943 0 8.87505V27.1251C0 28.6757 1.26188 29.9376 2.8125 29.9376H25.125C26.4387 29.9376 27.545 29.0319 27.8525 27.8126H6.875C4.29 27.8126 2.1875 25.7094 2.1875 23.1251Z" fill="#008ACC"/>
<path d="M16 9.5625C16.8629 9.5625 17.5625 8.86294 17.5625 8C17.5625 7.13706 16.8629 6.4375 16 6.4375C15.1371 6.4375 14.4375 7.13706 14.4375 8C14.4375 8.86294 15.1371 9.5625 16 9.5625Z" fill="#008ACC"/>
<path d="M16.6174 18.2056C16.2639 18.5149 15.7361 18.5149 15.3826 18.2056L11.9649 15.215L4.0625 21.3614V23.125C4.0625 24.6757 5.32438 25.9375 6.875 25.9375H29.1875C30.7381 25.9375 32 24.6757 32 23.125V18.387L24.0148 11.7328L16.6174 18.2056Z" fill="#008ACC"/>
<path d="M29.1875 2.0625H6.875C5.32438 2.0625 4.0625 3.32438 4.0625 4.875V18.9859L11.4244 13.26C11.7791 12.9842 12.2794 12.9988 12.6174 13.2945L16 16.2542L23.3826 9.79444C23.7296 9.49087 24.2459 9.48456 24.6001 9.77975L32 15.9463V4.875C32 3.32438 30.7381 2.0625 29.1875 2.0625ZM16 11.4375C14.1046 11.4375 12.5625 9.89544 12.5625 8C12.5625 6.10456 14.1046 4.5625 16 4.5625C17.8954 4.5625 19.4375 6.10456 19.4375 8C19.4375 9.89544 17.8954 11.4375 16 11.4375Z" fill="#008ACC"/>
</svg>
