<svg width="32" height="32" viewBox="0 0 32 32" fill="none" xmlns="http://www.w3.org/2000/svg">
<path d="M8.04562 5.74382C9.0474 5.74382 9.85955 4.89076 9.85955 3.83851C9.85955 3.13726 9.05401 1.56238 8.51651 0.589697C8.30675 0.21001 7.78455 0.21001 7.57473 0.589697C7.03728 1.56238 6.23169 3.13726 6.23169 3.83851C6.23169 4.89076 7.04383 5.74382 8.04562 5.74382Z" fill="#FE9600"/>
<path d="M15.238 5.74382C16.2398 5.74382 17.0519 4.89076 17.0519 3.83851C17.0519 3.13726 16.2464 1.56238 15.7089 0.589697C15.4991 0.21001 14.9769 0.21001 14.7671 0.589697C14.2297 1.56238 13.4241 3.13726 13.4241 3.83851C13.4241 4.89076 14.2362 5.74382 15.238 5.74382Z" fill="#FE9600"/>
<path d="M22.4304 5.74382C23.4322 5.74382 24.2443 4.89076 24.2443 3.83851C24.2443 3.13726 23.4388 1.56238 22.9013 0.589697C22.6915 0.21001 22.1693 0.21001 21.9595 0.589697C21.4221 1.56238 20.6165 3.13726 20.6165 3.83851C20.6165 4.89076 21.4286 5.74382 22.4304 5.74382Z" fill="#FE9600"/>
<path d="M7.04705 7.30945C6.60335 7.30945 6.24365 7.68726 6.24365 8.15332V14.9611H9.84782V8.15339C9.84782 7.68732 9.48818 7.30951 9.04443 7.30951H7.04705V7.30945Z" fill="#FE9600"/>
<path d="M14.2394 7.30945C13.7957 7.30945 13.436 7.68726 13.436 8.15332V14.9611H17.0402V8.15339C17.0402 7.68732 16.6805 7.30951 16.2368 7.30951H14.2394V7.30945Z" fill="#FE9600"/>
<path d="M21.4321 7.30945C20.9884 7.30945 20.6287 7.68726 20.6287 8.15332V14.9611H24.2328V8.15339C24.2328 7.68732 23.8731 7.30951 23.4294 7.30951H21.4321V7.30945Z" fill="#FE9600"/>
<path d="M3.94347 22.2559C4.08882 22.2559 4.23757 22.2344 4.38543 22.1884L6.63936 21.4878C7.37609 21.2588 8.14436 21.1443 8.91257 21.1443C9.68079 21.1443 10.4491 21.2588 11.1858 21.4878L12.9648 22.0408C13.7016 22.2698 14.4698 22.3843 15.238 22.3843C16.0063 22.3843 16.7745 22.2698 17.5113 22.0408L19.2903 21.4878C20.027 21.2588 20.7953 21.1443 21.5635 21.1443C22.3317 21.1443 23.1 21.2588 23.8367 21.4878L26.0907 22.1884C26.2385 22.2343 26.3873 22.2559 26.5326 22.2559C27.2539 22.2559 27.889 21.7258 27.889 21.0217V18.6047C27.889 17.8035 27.1735 17.1539 26.2909 17.1539H4.18525C3.30263 17.1539 2.58716 17.8035 2.58716 18.6047V21.0217C2.58716 21.7258 3.22228 22.2559 3.94347 22.2559Z" fill="#FE9600"/>
<path d="M29.5833 29.82H27.1461V24.0707C26.9454 24.1101 26.7402 24.1309 26.5327 24.1309C26.2117 24.1309 25.8924 24.0823 25.5838 23.9863L23.3299 23.2858C22.7612 23.109 22.167 23.0194 21.5636 23.0194C20.9602 23.0194 20.3659 23.109 19.7973 23.2858L18.0182 23.8388C17.1202 24.1179 16.1849 24.2594 15.2382 24.2594C14.2914 24.2594 13.356 24.1179 12.458 23.8388L10.679 23.2858C10.1104 23.109 9.51607 23.0194 8.91268 23.0194C8.30929 23.0194 7.715 23.109 7.14637 23.2858L4.89244 23.9863C4.58375 24.0823 4.26452 24.131 3.94357 24.131C3.73601 24.131 3.53077 24.1102 3.33018 24.0707V29.82H0.892857C0.399762 29.82 0 30.2398 0 30.7575C0 31.2753 0.399762 31.695 0.892857 31.695H29.5833C30.0764 31.695 30.4762 31.2753 30.4762 30.7575C30.4762 30.2398 30.0764 29.82 29.5833 29.82Z" fill="#FE9600"/>
</svg>
