<svg width="32" height="32" viewBox="0 0 32 32" fill="none" xmlns="http://www.w3.org/2000/svg">
<path d="M8.9375 4.3125V2.25C8.9375 1.73225 8.51775 1.3125 8 1.3125C7.48225 1.3125 7.0625 1.73225 7.0625 2.25V4.3125H8.9375Z" fill="#34A853"/>
<path d="M16.9375 4.3125V2.25C16.9375 1.73225 16.5178 1.3125 16 1.3125C15.4822 1.3125 15.0625 1.73225 15.0625 2.25V4.3125H16.9375Z" fill="#34A853"/>
<path d="M32 11.3125V7.125C32 5.57419 30.7383 4.3125 29.1875 4.3125H24.9375V8.25C24.9375 8.76775 24.5177 9.1875 24 9.1875C23.4823 9.1875 23.0625 8.76775 23.0625 8.25C23.0625 6.73856 23.0625 5.53813 23.0625 4.3125H16.9375V8.25C16.9375 8.76775 16.5177 9.1875 16 9.1875C15.4823 9.1875 15.0625 8.76775 15.0625 8.25C15.0625 7.02887 15.0625 5.53456 15.0625 4.3125H8.9375V8.25C8.9375 8.76775 8.51775 9.1875 8 9.1875C7.48225 9.1875 7.0625 8.76775 7.0625 8.25C7.0625 6.73856 7.0625 5.53813 7.0625 4.3125H2.8125C1.26169 4.3125 0 5.57419 0 7.125V11.3125H32Z" fill="#34A853"/>
<path d="M24.9375 4.3125V2.25C24.9375 1.73225 24.5178 1.3125 24 1.3125C23.4822 1.3125 23.0625 1.73225 23.0625 2.25V4.3125H24.9375Z" fill="#34A853"/>
<path d="M0 13.1875V27.875C0 29.4258 1.26169 30.6875 2.8125 30.6875H29.1875C30.7383 30.6875 32 29.4258 32 27.875V13.1875H0ZM6.5 25.6875H5.5C4.98225 25.6875 4.5625 25.2677 4.5625 24.75C4.5625 24.2323 4.98225 23.8125 5.5 23.8125H6.5C7.01775 23.8125 7.4375 24.2323 7.4375 24.75C7.4375 25.2677 7.01775 25.6875 6.5 25.6875ZM6.5 21.6875H5.5C4.98225 21.6875 4.5625 21.2677 4.5625 20.75C4.5625 20.2323 4.98225 19.8125 5.5 19.8125H6.5C7.01775 19.8125 7.4375 20.2323 7.4375 20.75C7.4375 21.2677 7.01775 21.6875 6.5 21.6875ZM6.5 17.6875H5.5C4.98225 17.6875 4.5625 17.2677 4.5625 16.75C4.5625 16.2322 4.98225 15.8125 5.5 15.8125H6.5C7.01775 15.8125 7.4375 16.2322 7.4375 16.75C7.4375 17.2677 7.01775 17.6875 6.5 17.6875ZM11.5 25.6875H10.5C9.98225 25.6875 9.5625 25.2677 9.5625 24.75C9.5625 24.2323 9.98225 23.8125 10.5 23.8125H11.5C12.0177 23.8125 12.4375 24.2323 12.4375 24.75C12.4375 25.2677 12.0177 25.6875 11.5 25.6875ZM11.5 21.6875H10.5C9.98225 21.6875 9.5625 21.2677 9.5625 20.75C9.5625 20.2323 9.98225 19.8125 10.5 19.8125H11.5C12.0177 19.8125 12.4375 20.2323 12.4375 20.75C12.4375 21.2677 12.0177 21.6875 11.5 21.6875ZM11.5 17.6875H10.5C9.98225 17.6875 9.5625 17.2677 9.5625 16.75C9.5625 16.2322 9.98225 15.8125 10.5 15.8125H11.5C12.0177 15.8125 12.4375 16.2322 12.4375 16.75C12.4375 17.2677 12.0177 17.6875 11.5 17.6875ZM16.5 25.6875H15.5C14.9823 25.6875 14.5625 25.2677 14.5625 24.75C14.5625 24.2323 14.9823 23.8125 15.5 23.8125H16.5C17.0177 23.8125 17.4375 24.2323 17.4375 24.75C17.4375 25.2677 17.0177 25.6875 16.5 25.6875ZM16.5 21.6875H15.5C14.9823 21.6875 14.5625 21.2677 14.5625 20.75C14.5625 20.2323 14.9823 19.8125 15.5 19.8125H16.5C17.0177 19.8125 17.4375 20.2323 17.4375 20.75C17.4375 21.2677 17.0177 21.6875 16.5 21.6875ZM16.5 17.6875H15.5C14.9823 17.6875 14.5625 17.2677 14.5625 16.75C14.5625 16.2322 14.9823 15.8125 15.5 15.8125H16.5C17.0177 15.8125 17.4375 16.2322 17.4375 16.75C17.4375 17.2677 17.0177 17.6875 16.5 17.6875ZM21.5 25.6875H20.5C19.9823 25.6875 19.5625 25.2677 19.5625 24.75C19.5625 24.2323 19.9823 23.8125 20.5 23.8125H21.5C22.0177 23.8125 22.4375 24.2323 22.4375 24.75C22.4375 25.2677 22.0177 25.6875 21.5 25.6875ZM21.5 21.6875H20.5C19.9823 21.6875 19.5625 21.2677 19.5625 20.75C19.5625 20.2323 19.9823 19.8125 20.5 19.8125H21.5C22.0177 19.8125 22.4375 20.2323 22.4375 20.75C22.4375 21.2677 22.0177 21.6875 21.5 21.6875ZM21.5 17.6875H20.5C19.9823 17.6875 19.5625 17.2677 19.5625 16.75C19.5625 16.2322 19.9823 15.8125 20.5 15.8125H21.5C22.0177 15.8125 22.4375 16.2322 22.4375 16.75C22.4375 17.2677 22.0177 17.6875 21.5 17.6875ZM26.5 25.6875H25.5C24.9823 25.6875 24.5625 25.2677 24.5625 24.75C24.5625 24.2323 24.9823 23.8125 25.5 23.8125H26.5C27.0177 23.8125 27.4375 24.2323 27.4375 24.75C27.4375 25.2677 27.0177 25.6875 26.5 25.6875ZM26.5 21.6875H25.5C24.9823 21.6875 24.5625 21.2677 24.5625 20.75C24.5625 20.2323 24.9823 19.8125 25.5 19.8125H26.5C27.0177 19.8125 27.4375 20.2323 27.4375 20.75C27.4375 21.2677 27.0177 21.6875 26.5 21.6875ZM26.5 17.6875H25.5C24.9823 17.6875 24.5625 17.2677 24.5625 16.75C24.5625 16.2322 24.9823 15.8125 25.5 15.8125H26.5C27.0177 15.8125 27.4375 16.2322 27.4375 16.75C27.4375 17.2677 27.0177 17.6875 26.5 17.6875Z" fill="#34A853"/>
</svg>
