<svg width="32" height="32" viewBox="0 0 32 32" fill="none" xmlns="http://www.w3.org/2000/svg">
<g clip-path="url(#clip0_113_103)">
<path d="M16 12.9144C19.003 12.9144 21.4375 10.48 21.4375 7.47693C21.4375 4.47388 19.003 2.03943 16 2.03943C12.997 2.03943 10.5625 4.47388 10.5625 7.47693C10.5625 10.48 12.997 12.9144 16 12.9144Z" fill="#243690"/>
<path d="M27 12.9143C28.8985 12.9143 30.4375 11.3753 30.4375 9.47681C30.4375 7.57833 28.8985 6.03931 27 6.03931C25.1015 6.03931 23.5625 7.57833 23.5625 9.47681C23.5625 11.3753 25.1015 12.9143 27 12.9143Z" fill="#243690"/>
<path d="M5 12.9143C6.89848 12.9143 8.4375 11.3753 8.4375 9.47681C8.4375 7.57833 6.89848 6.03931 5 6.03931C3.10152 6.03931 1.5625 7.57833 1.5625 9.47681C1.5625 11.3753 3.10152 12.9143 5 12.9143Z" fill="#243690"/>
<path d="M8.38688 16.0013C7.03375 14.8926 5.80831 15.0394 4.24375 15.0394C1.90375 15.0394 0 16.9319 0 19.2575V26.0831C0 27.0931 0.824375 27.9144 1.83812 27.9144C6.21475 27.9144 5.6875 27.9936 5.6875 27.7256C5.6875 22.889 5.11462 19.3421 8.38688 16.0013Z" fill="#243690"/>
<path d="M17.4881 15.0643C14.7553 14.8364 12.38 15.067 10.3312 16.7581C6.90263 19.5043 7.56244 23.202 7.56244 27.7256C7.56244 28.9224 8.53619 29.9144 9.75119 29.9144C22.9438 29.9144 23.4689 30.3399 24.2512 28.6075C24.5078 28.0216 24.4374 28.2078 24.4374 22.6031C24.4374 18.1515 20.5829 15.0643 17.4881 15.0643Z" fill="#243690"/>
<path d="M27.7562 15.0394C26.183 15.0394 24.9643 14.8941 23.613 16.0012C26.8608 19.3172 26.3124 22.6222 26.3124 27.7256C26.3124 27.9952 25.8747 27.9144 30.0962 27.9144C31.1462 27.9144 31.9999 27.0637 31.9999 26.0181V19.2575C31.9999 16.9319 30.0962 15.0394 27.7562 15.0394Z" fill="#243690"/>
</g>
<defs>
<clipPath id="clip0_113_103">
<rect width="32" height="32" fill="white"/>
</clipPath>
</defs>
</svg>
